<?xml version="1.0"?>
<svg xmlns="http://www.w3.org/2000/svg" xmlns:xlink="http://www.w3.org/1999/xlink" xmlns:svgjs="http://svgjs.com/svgjs" version="1.1" width="512" height="512" x="0" y="0" viewBox="0 0 62 62" style="enable-background:new 0 0 512 512" xml:space="preserve" class=""><circle r="31" cx="31" cy="31" fill="#030d42" shape="circle" transform="matrix(1,0,0,1,0,0)"/><g transform="matrix(0.7,-1.7145055188062944e-16,1.7145055188062944e-16,0.7,9.299999999999997,9.300000000000011)"><g xmlns="http://www.w3.org/2000/svg"><g><g><path d="m55 57v4h-8v-4h6z" fill="#ffffff" data-original="#aab2bd" style="" class=""/></g><g><path d="m15 57v4h-8v-4h6z" fill="#ffffff" data-original="#aab2bd" style="" class=""/></g><g><path d="m41 51h20v5c0 .55-.45 1-1 1h-3-2-2-6-5c-.55 0-1-.45-1-1z" fill="#3ee0c7" data-original="#ccd1d9" style="" class=""/></g><g><path d="m1 51h20v5c0 .55-.45 1-1 1h-3-2-2-6-5c-.55 0-1-.45-1-1z" fill="#3ee0c7" data-original="#ccd1d9" style="" class=""/></g><g><path d="m61 42v9h-20v-6-3c0-.55.45-1 1-1h18c.55 0 1 .45 1 1z" fill="#011188" data-original="#69d6f4" style="" class=""/></g><g><path d="m21 42v9h-20v-9c0-.55.45-1 1-1h18c.55 0 1 .45 1 1z" fill="#011188" data-original="#69d6f4" style="" class=""/></g><g><path d="m33 27h-5-1-20.69c-1.47 0-2.79-.6-3.75-1.56s-1.56-2.28-1.56-3.75c0-2.68 1.99-4.94 4.65-5.27l3.35-.42.33-1.8c.49-2.66 1.89-4.96 3.85-6.6 1.95-1.63 4.46-2.6 7.17-2.6 1.74 0 3.46.41 5.02 1.18l1.63.82 3.11-2.67c1.25-1.07 2.68-1.91 4.21-2.47 1.52-.56 3.15-.86 4.8-.86 7.26 0 13.28 5.61 13.8 12.85l.08 1.15 3.75.94c1.25.31 2.31 1.03 3.06 1.99s1.19 2.17 1.19 3.45c0 3.11-2.51 5.62-5.62 5.62z" fill="#1562c8" data-original="#e6e9ed" style="" class=""/></g></g><g><path d="m20 40h-18c-1.103 0-2 .897-2 2v14c0 1.103.897 2 2 2h4v2h-2v2h14v-2h-2v-2h4c1.103 0 2-.897 2-2v-14c0-1.103-.897-2-2-2zm0 2 .001 8h-18.001v-8zm-6 18h-6v-2h6zm4-4v-2h-2v2h-2v-2h-2v2h-10v-4h18.001l.001 4z" fill="#ffffff" data-original="#000000" style="" class=""/><path d="m60 40h-18c-1.103 0-2 .897-2 2v2h-5c-.552 0-1-.448-1-1v-15h21.385c3.647 0 6.615-2.968 6.615-6.615 0-3.041-2.061-5.681-5.012-6.418l-3.042-.761-.031-.428c-.552-7.726-7.052-13.778-14.797-13.778-3.538 0-6.968 1.269-9.654 3.571l-2.61 2.237-1.04-.52c-1.686-.842-3.574-1.288-5.46-1.288-5.904 0-10.955 4.216-12.01 10.024l-.196 1.074-2.619.327c-3.152.395-5.529 3.088-5.529 6.263 0 3.481 2.831 6.312 6.312 6.312h21.688v19c0 .552-.448 1-1 1h-1.131l.963-1.445-1.664-1.109-2.37 3.554 2.37 3.555 1.664-1.109-.963-1.446h1.131c1.654 0 3-1.346 3-3v-19c0-1.103-.897-2-2-2h-21.688c-2.377 0-4.312-1.935-4.312-4.312 0-2.169 1.624-4.009 3.776-4.278l4.076-.509.458-2.52c.884-4.856 5.108-8.381 10.044-8.381 1.576 0 3.155.373 4.564 1.078l2.228 1.113 3.618-3.102c2.326-1.991 5.293-3.089 8.354-3.089 6.701 0 12.324 5.236 12.803 11.921l.133 1.873 4.45 1.112c2.059.515 3.496 2.357 3.496 4.479 0 2.545-2.07 4.615-4.615 4.615h-21.385v-5.586l2.293 2.293 1.414-1.414-4.707-4.707-4.707 4.707 1.414 1.414 2.293-2.293v22.586c0 1.654 1.346 3 3 3h5v10c0 1.103.897 2 2 2h4v2h-2v2h14v-2h-2v-2h4c1.103 0 2-.897 2-2v-14c0-1.103-.897-2-2-2zm0 2 .001 8h-18.001v-8zm-6 18h-6v-2h6zm4-4v-2h-2v2h-2v-2h-2v2h-10v-4h18.001l.001 4z" fill="#ffffff" data-original="#000000" style="" class=""/><path d="m6 34h2v2h-2z" fill="#ffffff" data-original="#000000" style="" class=""/><path d="m10 34h2v2h-2z" fill="#ffffff" data-original="#000000" style="" class=""/><path d="m14 34h2v2h-2z" fill="#ffffff" data-original="#000000" style="" class=""/><path d="m18 34h2v2h-2z" fill="#ffffff" data-original="#000000" style="" class=""/><path d="m42 34h2v2h-2z" fill="#ffffff" data-original="#000000" style="" class=""/><path d="m46 34h2v2h-2z" fill="#ffffff" data-original="#000000" style="" class=""/><path d="m50 34h2v2h-2z" fill="#ffffff" data-original="#000000" style="" class=""/><path d="m54 34h2v2h-2z" fill="#ffffff" data-original="#000000" style="" class=""/></g></g></g></svg>
